<?xml version="1.0" standalone="no"?>
<!DOCTYPE svg PUBLIC "-//W3C//DTD SVG 20010904//EN"
 "http://www.w3.org/TR/2001/REC-SVG-20010904/DTD/svg10.dtd">
<svg version="1.0" xmlns="http://www.w3.org/2000/svg"
 width="1632.000000pt" height="1632.000000pt" viewBox="0 0 1632.000000 1632.000000"
 preserveAspectRatio="xMidYMid meet">
<metadata>
Created by potrace 1.14, written by Peter Selinger 2001-2017
</metadata>
<g transform="translate(0.000000,1632.000000) scale(0.100000,-0.100000)"
fill="#000000" stroke="none">
<path d="M4259 12476 c-3 -3 -14 -7 -25 -9 -36 -8 -84 -29 -84 -38 0 -5 -5 -9
-11 -9 -7 0 -931 -919 -2054 -2042 l-2042 -2043 -22 -67 c-31 -92 -26 -162 17
-258 9 -22 749 -769 2056 -2076 1661 -1660 2050 -2045 2091 -2064 69 -33 199
-34 265 -3 47 22 130 90 130 105 0 5 5 14 10 21 32 38 86 136 199 362 19 39
39 73 44 76 5 3 8 9 8 13 -1 7 30 71 119 241 53 101 211 408 368 715 35 69 90
175 121 235 85 165 300 583 376 730 36 71 71 135 77 142 6 7 7 13 2 13 -5 0
-4 4 1 8 9 6 47 78 49 92 1 3 6 12 11 20 5 8 42 78 82 155 68 132 74 140 100
138 15 -1 29 -7 31 -13 2 -5 12 -10 22 -10 10 0 20 -3 22 -7 2 -5 44 -29 93
-54 143 -73 557 -285 705 -362 74 -38 214 -110 310 -160 427 -219 523 -269
655 -337 323 -167 359 -182 432 -173 97 12 160 41 217 101 32 35 33 36 101
169 27 54 59 114 71 133 11 19 25 46 29 60 4 14 10 27 14 30 10 8 189 361 189
374 0 5 4 12 9 15 6 3 26 40 46 81 20 41 46 93 58 115 12 22 25 47 30 57 45
90 173 336 181 346 6 6 7 12 2 12 -5 0 -4 4 1 8 6 4 28 43 50 87 22 44 61 119
86 167 26 48 44 88 40 88 -3 0 -1 4 4 8 6 4 54 93 107 197 53 105 126 246 162
315 36 69 98 190 138 270 40 80 77 148 81 151 5 3 9 12 10 20 2 8 6 19 10 26
4 6 37 69 73 140 37 70 71 134 76 141 6 6 7 12 3 12 -4 0 -3 6 3 13 10 12 109
202 192 367 l43 85 39 -115 c22 -63 41 -124 43 -134 3 -11 12 -42 22 -70 9
-28 18 -54 19 -58 1 -5 3 -10 4 -13 1 -3 3 -8 4 -12 4 -18 109 -345 122 -378
4 -11 8 -24 10 -30 16 -61 55 -178 64 -194 6 -12 8 -21 4 -21 -3 0 -1 -7 6
-15 7 -8 10 -15 6 -15 -3 0 1 -17 8 -37 8 -21 40 -118 71 -216 66 -206 70
-217 126 -275 59 -60 159 -101 235 -96 42 3 99 16 112 26 6 6 12 7 12 4 0 -11
61 33 95 68 77 79 104 179 82 296 -3 14 -26 90 -52 170 -26 80 -48 150 -49
155 -2 6 -6 17 -9 25 -3 8 -33 103 -67 210 -34 107 -67 211 -75 230 -7 19 -13
38 -14 43 -1 4 -2 9 -2 12 -1 3 -2 8 -3 13 -1 4 -6 21 -13 37 -12 32 -74 223
-77 240 -4 17 -127 401 -142 440 -4 11 -9 29 -11 40 -1 11 -7 29 -12 40 -6 11
-23 63 -39 115 -157 502 -154 492 -190 540 -23 31 -37 46 -77 78 -19 15 -100
45 -130 48 -16 1 -32 3 -35 4 -9 4 -55 1 -80 -4 -23 -5 -36 -10 -95 -32 -11
-4 -26 -8 -33 -10 -7 -1 -67 -20 -135 -42 -67 -22 -216 -70 -332 -107 -115
-36 -217 -69 -225 -71 -8 -3 -17 -6 -20 -6 -3 -1 -36 -12 -75 -25 -38 -14 -77
-26 -85 -28 -8 -2 -48 -15 -87 -28 -40 -14 -73 -23 -73 -21 0 3 -13 -2 -30
-11 -16 -8 -33 -15 -37 -15 -5 0 -24 -5 -43 -11 -46 -14 -53 -16 -65 -19 -5
-1 -21 -7 -35 -12 -21 -8 -162 -53 -195 -62 -5 -2 -22 -8 -38 -14 -15 -7 -38
-14 -50 -17 -27 -5 -114 -34 -142 -45 -24 -10 -66 -23 -80 -25 -5 -1 -17 -4
-25 -7 -14 -6 -90 -31 -100 -33 -3 -1 -36 -11 -75 -24 -38 -12 -78 -24 -87
-26 -9 -2 -26 -9 -37 -15 -12 -6 -21 -8 -21 -5 0 3 -22 -6 -50 -20 -55 -28
-128 -98 -137 -132 -3 -13 -8 -23 -12 -23 -14 0 -29 -95 -26 -160 3 -70 33
-138 84 -194 32 -35 119 -86 147 -86 11 0 24 -3 27 -7 6 -5 75 -8 95 -3 4 1
10 2 15 1 4 -1 33 7 65 18 107 35 432 137 444 140 5 1 38 12 75 25 69 23 113
38 438 141 99 32 245 79 325 105 80 26 147 46 149 44 2 -2 -2 -10 -9 -19 -7
-8 -10 -15 -7 -15 3 0 -9 -26 -26 -57 -18 -32 -50 -94 -71 -138 -22 -44 -44
-87 -50 -95 -7 -8 -25 -44 -41 -80 -17 -36 -32 -67 -35 -70 -3 -3 -18 -32 -35
-65 -16 -33 -32 -62 -35 -65 -3 -3 -16 -30 -30 -60 -13 -30 -29 -62 -36 -70
-6 -8 -15 -26 -19 -40 -4 -14 -10 -27 -14 -30 -3 -3 -22 -36 -41 -75 -19 -38
-49 -96 -67 -128 -18 -33 -33 -65 -33 -72 0 -7 -3 -15 -7 -17 -5 -1 -53 -91
-107 -198 -55 -107 -128 -249 -162 -315 -35 -66 -81 -158 -104 -205 -23 -47
-47 -88 -52 -91 -5 -3 -10 -9 -9 -12 0 -14 -42 -102 -53 -109 -6 -4 -7 -8 -2
-8 5 0 4 -6 -2 -12 -9 -13 -47 -84 -272 -523 -220 -429 -283 -550 -285 -553
-3 -3 -406 199 -415 208 -3 3 -88 47 -190 99 -102 52 -242 124 -312 160 -70
36 -217 112 -325 167 -109 56 -261 134 -338 174 -437 227 -622 317 -645 315
-14 -1 -33 2 -42 7 -10 5 -18 5 -18 1 0 -4 -17 -9 -38 -10 -55 -2 -123 -35
-173 -84 -51 -51 -49 -47 -131 -209 -34 -69 -75 -146 -89 -171 -15 -25 -30
-57 -34 -70 -4 -13 -11 -26 -14 -29 -4 -3 -25 -41 -47 -85 -69 -139 -116 -229
-125 -245 -5 -8 -23 -44 -42 -80 -18 -36 -37 -72 -42 -80 -5 -8 -10 -17 -10
-20 -1 -6 -28 -60 -130 -255 -157 -304 -255 -494 -341 -665 -49 -96 -91 -177
-94 -180 -3 -3 -40 -75 -84 -160 -43 -85 -111 -218 -151 -295 -40 -77 -96
-187 -125 -245 -29 -58 -57 -110 -62 -116 -5 -7 -629 610 -1735 1717 -950 950
-1729 1731 -1730 1736 -2 5 851 864 1896 1909 1824 1825 1932 1936 1949 2004
11 42 8 156 -5 193 -27 79 -92 150 -169 186 -43 21 -182 40 -195 27z"/>
<path d="M11790 12477 c-3 -3 -17 -7 -30 -9 -57 -9 -180 -94 -180 -125 0 -7
-4 -13 -9 -13 -13 0 -39 -71 -44 -117 -1 -13 -6 -23 -10 -23 -5 0 -6 -4 -3 -8
3 -5 8 -32 11 -62 3 -29 16 -74 27 -99 17 -36 427 -451 1925 -1950 1047 -1047
1903 -1907 1903 -1911 0 -4 -855 -862 -1900 -1907 -1045 -1045 -1900 -1906
-1900 -1912 0 -6 -4 -11 -9 -11 -13 0 -39 -71 -44 -117 -1 -13 -6 -23 -10 -23
-5 0 -6 -4 -3 -8 3 -5 8 -32 11 -62 12 -106 82 -202 181 -250 39 -19 66 -24
134 -24 75 -1 92 2 140 28 45 23 436 409 2088 2061 1117 1118 2032 2038 2032
2044 0 6 4 11 9 11 17 0 52 116 52 175 0 45 -21 115 -49 160 -14 22 -939 954
-2056 2071 -1667 1666 -2040 2034 -2080 2053 -46 21 -174 40 -186 28z"/>
</g>
</svg>
